0.16m3min_grf.mot
version=1
nRows=25
nColumns 19
inDegrees=yes
endheader
time	1_ground_force_vx	1_ground_force_vy	1_ground_force_vz	1_ground_force_px	1_ground_force_py	1_ground_force_pz	1_ground_torque_x	1_ground_torque_y	1_ground_torque_z	2_ground_force_vx	2_ground_force_vy	2_ground_force_vz	2_ground_force_px	2_ground_force_py	2_ground_force_pz	2_ground_torque_x	2_ground_torque_y	2_ground_torque_z
            1.252500	            0.505335	            5.404529	            0.847344	           -0.233013	            0.005581	           -0.255695	            0.468636	           -0.185160	            0.169737	           -2.377267	            9.747721	            1.068239	           -0.232311	            0.006130	           -0.833667	           -2.249548	           -1.129003	            1.523845
            1.253000	            0.642034	            5.586197	            0.526784	           -0.233013	            0.005581	           -0.255695	            0.726311	           -0.222113	            0.193595	           -2.378638	           10.116352	            0.975697	           -0.081123	            0.005839	           -0.599188	            0.104065	           -0.442591	           -0.042687
            1.253500	            0.642181	            5.405735	            0.571867	           -0.233013	            0.005581	           -0.255695	            0.649531	           -0.259342	            0.250027	           -2.422082	            9.194772	            1.160144	           -0.232311	            0.006130	           -0.833667	           -2.230600	           -1.176132	            1.504819
            1.254000	            0.413014	            5.766025	            0.619838	           -0.233013	            0.005581	           -0.255695	            0.590967	           -0.314836	            0.221350	           -2.190532	            9.932546	            1.068816	           -0.232311	            0.006130	           -0.833667	           -2.230779	           -1.128801	            1.486137
            1.254500	            0.641968	            5.946729	            0.528330	           -0.233013	            0.005581	           -0.255695	            0.688497	           -0.268257	            0.174680	           -2.567346	           10.483805	            1.024019	           -0.086558	            0.005855	           -0.609258	            0.103437	           -0.422388	           -0.041257
            1.255000	            0.687422	            5.586992	            0.343247	           -0.233013	            0.005581	           -0.255695	            0.621495	           -0.166658	            0.196048	           -2.520578	           10.484644	            0.836286	           -0.092554	            0.005808	           -0.601938	            0.105160	           -0.437426	           -0.034890
            1.255500	            0.825798	            4.684511	            0.614176	           -0.233013	            0.005581	           -0.255695	            0.704226	           -0.212786	            0.201541	           -2.468994	            9.195105	            1.019379	           -0.232311	            0.006130	           -0.833667	           -2.193260	           -1.109894	            1.523889
            1.256000	            0.275371	            5.766195	            0.574323	           -0.233013	            0.005581	           -0.255695	            0.649068	           -0.231458	            0.159304	           -2.329773	            9.563909	            1.020634	           -0.232311	            0.006130	           -0.833667	           -2.268418	           -1.110031	            1.486220
            1.256500	            0.688494	            5.945558	            0.803352	           -0.233013	            0.005581	           -0.255695	            0.583050	           -0.268488	            0.233290	           -2.614901	           10.668119	            0.930839	           -0.091256	            0.005840	           -0.609626	            0.103253	           -0.421246	           -0.036756
            1.257000	            0.275811	            5.224809	            0.709572	           -0.233013	            0.005581	           -0.255695	            0.606021	           -0.314652	            0.159074	           -2.379323	           10.300668	            0.929426	           -0.078696	            0.005897	           -0.612889	            0.099871	           -0.432367	           -0.039012
            1.257500	            0.322451	            5.223441	            1.030450	           -0.233013	            0.005581	           -0.255695	            0.592562	           -0.259564	            0.255289	           -2.235471	            9.380601	            0.879152	           -0.232311	            0.006130	           -0.833667	           -2.230805	           -1.119416	            1.505021
            1.258000	            0.412819	            5.586153	            0.527353	           -0.233013	            0.005581	           -0.255695	            0.557579	           -0.259628	            0.278070	           -2.470323	            9.563402	            1.020693	           -0.232311	            0.006130	           -0.833667	           -2.268246	           -1.166479	            1.410617
            1.258500	            0.504844	            6.847047	            0.761816	           -0.233013	            0.005581	           -0.255695	            0.678165	           -0.222177	            0.187805	           -2.515926	            9.195605	            0.831687	           -0.232311	            0.006130	           -0.833667	           -2.305750	           -1.176336	            1.486000
            1.259000	            0.183065	            6.668293	            0.394992	           -0.233013	            0.005581	           -0.255695	            0.675431	           -0.148955	            0.306036	           -2.287555	           10.852949	            1.072141	           -0.086106	            0.005869	           -0.612696	            0.092464	           -0.438681	           -0.043336
            1.259500	            0.413257	            6.306233	            0.759724	           -0.233013	            0.005581	           -0.255695	            0.603743	           -0.232041	            0.315644	           -2.331103	            9.932206	            1.021948	           -0.232311	            0.006130	           -0.833667	           -2.211823	           -1.175997	            1.485960
            1.260000	            0.321067	            5.946667	            0.529126	           -0.233013	            0.005581	           -0.255695	            0.669880	           -0.277974	            0.236194	           -2.425590	           10.117020	            0.741076	           -0.076486	            0.005868	           -0.602462	            0.108541	           -0.452717	           -0.033162
            1.260500	            0.412867	            5.946488	            0.574755	           -0.233013	            0.005581	           -0.255695	            0.555264	           -0.324088	            0.221392	           -2.147067	           10.853959	            0.931297	           -0.090740	            0.005876	           -0.619268	            0.115489	           -0.583824	           -0.050094
            1.261000	            0.230325	            5.764810	            0.895428	           -0.233013	            0.005581	           -0.255695	            0.729584	           -0.342937	            0.288258	           -2.378014	            9.932539	            0.881183	           -0.232311	            0.006130	           -0.833667	           -2.268486	           -1.091126	            1.486288
            1.261500	            0.505074	            5.585188	            0.756405	           -0.233013	            0.005581	           -0.255695	            0.660391	           -0.222503	            0.263085	           -2.519167	           10.115678	            1.022684	           -0.091070	            0.005802	           -0.598848	            0.088374	           -0.354865	           -0.035876
            1.262000	            0.596191	            5.586188	            0.526898	           -0.233013	            0.005581	           -0.255695	            0.651213	           -0.194418	            0.191945	           -2.612887	           10.115507	            0.975796	           -0.081453	            0.005851	           -0.602788	            0.105051	           -0.406693	           -0.039232
            1.262500	            0.688138	            5.405547	            0.617609	           -0.233013	            0.005581	           -0.255695	            0.534746	           -0.175828	            0.177432	           -2.424220	            9.748389	            0.833618	           -0.232311	            0.006130	           -0.833667	           -2.212036	           -1.119213	            1.467313
            1.263000	            0.641857	            4.685459	            0.385351	           -0.233013	            0.005581	           -0.255695	            0.620307	           -0.203974	            0.269160	           -2.238711	           10.300674	            1.070150	           -0.081658	            0.005855	           -0.604102	            0.096585	           -0.444403	           -0.046170
            1.263500	            0.688122	            4.864947	            0.569434	           -0.233013	            0.005581	           -0.255695	            0.668650	           -0.231587	            0.252072	           -2.238067	           10.116693	            1.022565	           -0.084427	            0.005847	           -0.604870	            0.102940	           -0.465317	           -0.047033
            1.264000	            0.550657	            5.765855	            0.665352	           -0.233013	            0.005581	           -0.255695	            0.626478	           -0.323847	            0.189491	           -2.333055	           10.484316	            1.117775	           -0.084395	            0.005866	           -0.610142	            0.094174	           -0.423199	           -0.045119
            1.264500	            0.183392	            6.127102	            0.484385	           -0.233013	            0.005581	           -0.255695	            0.690427	           -0.259467	            0.211554	           -2.142374	            9.564586	            1.020554	           -0.232311	            0.006130	           -0.833667	           -2.305886	           -1.138525	            1.486135
